<?xml version="1.0" encoding="UTF-8"?>
<svg id="_圖層_2" data-name="圖層 2" xmlns="http://www.w3.org/2000/svg" viewBox="0 0 2448.35 331.05">
  <defs>
    <style>
      .cls-1 {
        fill: #cd944a;
      }

      .cls-2 {
        fill: #231815;
      }

      .cls-3 {
        fill: #666;
      }
    </style>
  </defs>
  <g id="_圖層_1-2" data-name="圖層 1">
    <g>
      <g>
        <path class="cls-2" d="M655.12,79.53c-3.09-2.87-7.53-6.01-13.33-9.42-5.8-3.41-11.48-6.25-17.03-8.53l9.62-12.39c13.94,5.39,24.25,10.95,30.91,16.7l-10.18,13.64ZM644.2,162.47l-15.36-8.98c9.99-18.55,18.75-37.58,26.28-57.09l13.88,9.16c-7.53,19.75-15.8,38.72-24.8,56.91ZM662.89,32.49c-6.17-6.22-15.98-12.63-29.43-19.21l9.81-11.85c13.7,5.99,23.69,11.91,29.98,17.77l-10.36,13.29ZM723.6,164.81v-21.18h-44.23v-12.93h44.23v-10.59h-49.42v-12.93h27.76c-1.73-4.91-3.7-9.39-5.92-13.46l3.89-.9h-30.54v-12.93h54.23v-9.87h-40.53v-12.75h40.53v-9.16h-44.97V5.57h108.64v42.55h-46.83v9.16h42.75v12.75h-42.75v9.87h54.78v12.93h-26.84l1.67.36c-1.73,3.35-4.32,7.78-7.77,13.28-.25.36-.43.6-.56.72h29.98v12.93h-51.27v10.59h46.27v12.93h-46.27v21.18h-16.84ZM693.8,35.37h16.66v-17.23h-16.66v17.23ZM714.9,107.18h33.13l-2.41-.54c2.71-5.14,4.93-9.75,6.66-13.82h-39.79c2.71,4.67,4.69,9.16,5.92,13.46l-3.52.9ZM723.6,35.37h17.21v-17.23h-17.21v17.23ZM753.95,35.37h17.4v-17.23h-17.4v17.23Z"/>
        <path class="cls-2" d="M914.97,165.17c-3.33-3.71-7.03-7-11.1-9.87,13.45-10.17,23.57-24.53,30.35-43.09h-12.77c-9.87,19.63-24.06,35.79-42.57,48.47-3.21-3.95-6.6-7.36-10.18-10.23,15.79-9.57,28.13-22.32,37.02-38.24h-13.33c-6.54,8.02-13.33,14.66-20.36,19.93-1.23-1.32-2.9-2.93-5-4.85h-34.79v14.18h-15.36V12.93h50.9v103.23c9.62-8.02,17.33-17.47,23.13-28.37h-19.8v-13.29h108.46v13.29h-71.81c-2.22,4.43-4.2,8.08-5.92,10.95h73.29c0,2.04-.06,4.07-.19,6.1-1.11,17.83-2.28,30.58-3.52,38.24-1.36,8.02-3.15,13.29-5.37,15.8-2.59,2.99-6.17,4.73-10.73,5.21-4.81.48-10.49.54-17.03.18-.25-5.39-1.54-10.05-3.89-14,5.3.48,9.87.72,13.7.72,2.34,0,4.07-.66,5.18-1.98,2.59-3.11,4.63-15.38,6.11-36.8h-10.18c-7.53,22.26-18.94,39.91-34.24,52.96ZM832.24,62.3h19.99V27.65h-19.99v34.65ZM832.24,112.56h19.99v-35.73h-19.99v35.73ZM883.13,64.81V5.92h84.58v58.89h-84.58ZM899.24,29.62h52.01v-11.67h-52.01v11.67ZM899.24,52.78h52.01v-12.03h-52.01v12.03Z"/>
        <path class="cls-2" d="M1007.32,165.17c-4.32-4.91-8.7-8.74-13.14-11.49,9.75-6.46,17.64-15.08,23.69-25.85-7.16-9.34-12.96-20.94-17.4-34.83l13.51-4.67c2.84,9.33,6.54,17.36,11.1,24.06,3.95-10.89,6.85-23.1,8.7-36.62h-17.77l-3.15,6.28-15.55-4.13c7.52-14,16.16-31.54,25.91-52.6h-27.39v-14.54h35.35l2.59-.72,11.84,3.05c-4.81,11.49-12.22,27.53-22.21,48.11h14.99l2.78-.54,10.18,2.33c-2.35,25.38-7.16,46.32-14.44,62.83,8.27,7.06,18.69,12.03,31.28,14.9,10.24,2.28,23.44,3.47,39.61,3.59,31.83,0,51.45-.12,58.85-.36-2.96,4.31-5.18,9.69-6.66,16.16h-52.56c-17.65,0-32.2-1.32-43.68-3.95-13.57-3.11-24.92-8.44-34.05-15.98-6.29,10.53-13.76,18.85-22.4,24.95ZM1095.05,138.42v-16.88h-46.27v-13.46h46.27v-11.49h-38.13v-12.57h38.13v-10.77h-37.02v-13.11h37.02v-10.77h-48.68v-13.11h48.68v-10.23h-35.91v-13.11h35.91V1.44h16.84v11.49h39.42v23.34h13.88v13.11h-13.88v23.88h-39.42v10.77h41.09v12.57h-41.09v11.49h49.23v13.46h-49.23v16.88h-16.84ZM1111.89,36.26h22.58v-10.23h-22.58v10.23ZM1111.89,60.14h22.58v-10.77h-22.58v10.77Z"/>
        <path class="cls-2" d="M1180.37,42.91v-13.29h70.7v13.29h-70.7ZM1188.7,162.47v-60.32h55.71v52.78h-40.9v7.54h-14.81ZM1257,75.22c-1.23-1.55-3.15-3.41-5.74-5.57-2.72-2.27-4.94-3.95-6.66-5.03v2.33h-55.52v-12.93h55.52v10.23c7.65-4.91,13.02-11.01,16.1-18.31,2.22-5.27,3.33-11.67,3.33-19.21V5.39h59.41v42.19c0,2.04.19,3.35.56,3.95.37.6,1.17.9,2.41.9h7.22c1.48,0,2.41-1.08,2.78-3.23.62-2.39.99-7.6,1.11-15.62,3.45,2.87,8.14,4.91,14.07,6.1-.49,10.41-1.98,17.59-4.44,21.54-2.22,3.59-6.11,5.39-11.66,5.39h-11.84c-6.42,0-10.8-1.32-13.14-3.95-2.35-2.63-3.52-7.6-3.52-14.9v-27.47h-26.65v6.64c0,22.14-7.77,38.24-23.32,48.29ZM1189.07,91.02v-13.11h55.52v13.11h-55.52ZM1189.81,19.03V5.92h54.23v13.11h-54.23ZM1203.51,141.47h25.91v-25.85h-25.91v25.85ZM1253.85,164.63c-2.22-5.63-5.31-10.53-9.25-14.72,15.18-3.59,28.87-9.45,41.09-17.59-9.99-10.53-18.02-22.38-24.06-35.55l15.36-4.67c5.06,11.37,12.15,21.36,21.28,29.98,9.25-8.62,16.35-18.67,21.28-30.16h-66.26v-15.26h73.85l3.15-.54,11.1,4.13c-5.92,21.07-15.92,38.54-29.98,52.42,11.85,8.02,25.36,13.89,40.53,17.59-4.07,3.47-7.77,8.26-11.1,14.36-16.29-4.67-30.42-11.67-42.38-21-12.71,9.21-27.58,16.22-44.6,21Z"/>
        <path class="cls-2" d="M1378.41,164.99c-4.07-3.35-8.76-5.92-14.07-7.72,5.3-11.01,8.94-25.31,10.92-42.91,1.36-11.49,2.04-26.09,2.04-43.8V6.28h53.49v56.19c7.28-4.67,12.4-10.53,15.36-17.59,2.1-5.03,3.15-11.19,3.15-18.49V5.75h60.15v42.37c0,2.15.12,3.5.37,4.04.25.54.99.81,2.22.81h6.66c1.48,0,2.41-1.14,2.78-3.41.62-2.39.99-7.78,1.11-16.16,4.07,3.11,8.82,5.09,14.25,5.92-.62,10.89-2.1,18.31-4.44,22.26-2.35,3.71-6.23,5.56-11.66,5.56h-11.29c-6.29,0-10.61-1.32-12.96-3.95-2.35-2.63-3.52-7.6-3.52-14.9v-26.93h-27.21v5.57c0,21.54-7.65,37.22-22.95,47.04-2.84-3.71-6.85-7.18-12.03-10.41v82.22c0,8.14-2.22,13.46-6.66,15.98-4.07,2.15-12.34,3.11-24.8,2.87-.49-5.63-2.16-10.95-5-15.98,4.19.24,9.38.3,15.55.18h1.67c2.22-.12,3.33-1.26,3.33-3.41v-41.11h-23.13c-1.85,25.97-6.29,46.2-13.33,60.68ZM1392.66,88.51h22.21v-25.85h-22.02v7.9c0,7.78-.06,13.76-.19,17.95ZM1392.84,47.22h22.02v-25.49h-22.02v25.49ZM1525.73,165.17c-16.54-5.15-30.85-12.51-42.94-22.08-12.59,9.33-26.72,16.58-42.38,21.72-2.35-5.51-5.62-10.29-9.81-14.36,14.68-4.07,27.82-10.29,39.42-18.67-9.99-10.65-18.08-22.56-24.25-35.73l13.33-4.49h-19.8v-15.44h72.18l3.15-.72,11.1,4.31c-5.8,20.35-15.8,37.64-29.98,51.88,12.34,8.86,26.16,15.2,41.46,19.03-4.44,3.83-8.27,8.68-11.47,14.54ZM1482.79,121c8.76-8.5,15.73-18.31,20.91-29.44h-42.01c5.06,10.89,12.09,20.71,21.1,29.44Z"/>
        <path class="cls-2" d="M1572,164.45v-96.41c-5.18,6.82-10.49,13.05-15.92,18.67-2.47-5.74-5.62-11.37-9.44-16.88,8.64-8.26,16.9-18.61,24.8-31.06,7.65-12.21,14-24.89,19.06-38.06l16.1,4.67c-4.94,12.69-11.04,25.31-18.32,37.88v121.18h-16.29ZM1610.31,164.63c-2.84-5.15-6.29-9.33-10.36-12.57,12.83-6.58,22.27-15.92,28.32-28.01,4.81-9.57,7.96-22.14,9.44-37.7h-23.14v-14.72c-4.32,5.27-7.96,9.28-10.92,12.03-4.07-4.55-7.9-8.14-11.48-10.77,6.91-6.46,13.26-14.66,19.06-24.59,5.43-9.21,9.5-18.43,12.21-27.65l16.66,3.95c-6.91,18.31-15.36,33.87-25.36,46.68h85.14c-12.09-14-20.73-31.18-25.91-51.52h-38.31V4.85h51.82c2.59,13.53,6.91,25.73,12.96,36.62,6.41,11.49,14.07,20.23,22.95,26.21-5.31,4.55-9.5,9.28-12.59,14.18-3.7-3.11-7.22-6.52-10.55-10.23,0,3.23-.06,5.51-.19,6.82-.74,27.17-1.6,45.9-2.59,56.19-1.11,11.37-2.9,18.55-5.37,21.54-2.72,3.83-6.79,6.1-12.22,6.82-4.57.48-11.66.54-21.28.18-.25-6.34-1.79-11.79-4.63-16.34,4.93.48,10.67.72,17.21.72,2.71,0,4.63-.78,5.74-2.33,2.84-3.47,4.75-23.1,5.74-58.88h-28.32c-1.85,18.07-5.74,32.97-11.66,44.7-7.16,14.12-17.95,25.31-32.39,33.57Z"/>
        <path class="cls-2" d="M1774.29,164.81v-82.22c-8.51,9.82-17.77,18.07-27.76,24.78-4.07-5.62-7.84-9.93-11.29-12.93,19.25-12.57,35.47-31.36,48.68-56.37h-43.68v-15.62h50.71c3.08-7.42,5.67-14.9,7.77-22.44l17.58,3.95c-.12.48-.37,1.2-.74,2.15-2.47,7.3-4.38,12.75-5.74,16.34h91.98v15.62h-98.83c-2.72,5.51-5.92,11.49-9.62,17.95h87.17v89.4c0,4.67-.56,8.26-1.67,10.77-1.36,2.63-3.64,4.55-6.85,5.75-2.96,1.19-7.22,1.97-12.77,2.33-3.58.24-10.06.36-19.43.36-.62-4.67-2.41-10.05-5.37-16.16,11.23.6,19.62.72,25.17.36,1.6,0,2.68-.27,3.24-.81.56-.54.83-1.46.83-2.78v-15.44h-72.37v35.01h-17.03ZM1791.32,86.17h72.37v-15.62h-72.37v15.62ZM1791.32,115.79h72.37v-15.62h-72.37v15.62Z"/>
        <path class="cls-2" d="M1928.65,164.81V7.54h44.6l2.41-.54,11.66,6.64c-6.54,18.67-12.83,34.71-18.88,48.11,10.98,11.37,16.47,23.88,16.47,37.52,0,11.01-2.72,18.25-8.14,21.72-2.47,1.79-5.92,2.99-10.36,3.59-3.33.48-7.77.6-13.33.36-.25-5.86-1.6-10.95-4.07-15.26,2.71.24,6.17.36,10.36.36,2.96-.24,5-.78,6.11-1.62,2.71-1.67,3.95-5.39,3.7-11.13,0-11.49-5.43-22.74-16.29-33.75,4.56-11.01,9.25-24.65,14.07-40.93h-22.02v142.19h-16.29ZM2080.23,164.09c-24.92-12.33-42.01-37.52-51.27-75.58h-17.21v50.99l31.46-5.75,1.3,14.54c-17.03,3.83-38.25,8.44-63.67,13.82l-5.74-16.16c2.47-.36,6.48-1.02,12.03-1.97,3.45-.6,6.11-1.08,7.96-1.44V7.9h83.84v80.61h-35.17c2.47,8.26,5.43,15.92,8.88,22.98,8.88-7.42,15.92-14.06,21.1-19.93l13.51,9.16c-9.38,8.26-18.63,15.74-27.76,22.44,8.88,12.69,19.62,21.72,32.2,27.11-3.95,3.23-7.77,7.84-11.48,13.82ZM2011.75,40.93h50.34v-18.67h-50.34v18.67ZM2011.75,74.14h50.34v-19.21h-50.34v19.21Z"/>
        <path class="cls-2" d="M2120.02,87.07c-4.81-4.91-9.5-8.8-14.07-11.67,8.14-5.86,15.92-13.4,23.32-22.62,7.03-8.74,12.4-17.42,16.1-26.03l18.88,5.21c-5.31,10.53-11.66,20.53-19.06,29.98-8.14,10.41-16.54,18.79-25.17,25.13ZM2255.31,165.88c-1.85-3.83-4.57-8.68-8.14-14.54-2.72.12-6.73.3-12.03.54-58.24,2.75-97.29,4.49-117.15,5.21l-2.04-17.41,26.47-.72c6.17-11.13,12.28-23.52,18.32-37.16,6.29-14.24,11.23-26.99,14.81-38.24l20.17,4.67c-10.61,25.25-21.96,48.59-34.05,70.02,9.62-.24,24.8-.78,45.53-1.62,13.08-.48,22.89-.84,29.43-1.08-7.28-10.53-15.43-21.12-24.43-31.78l15.92-7.36c8.64,9.46,17.09,19.81,25.36,31.06,8.26,11.25,14.62,21.07,19.06,29.44l-17.21,8.98ZM2262.35,83.66c-8.64-7.06-17.03-16.04-25.17-26.93-7.77-10.29-14.56-21.24-20.36-32.85h-57.37V7.54h69.59c5.18,12.21,12.22,24.12,21.1,35.73,9.01,11.85,18.32,21.3,27.95,28.37-6.05,3.59-11.29,7.6-15.73,12.03Z"/>
        <path class="cls-2" d="M2404.3,163.91c-.86-5.99-2.84-12.03-5.92-18.13,12.22.6,21.47.72,27.76.36,1.73-.12,2.93-.48,3.61-1.08.68-.6,1.02-1.73,1.02-3.41V27.11h-130.85v-15.98h148.43v130.7c0,5.39-.68,9.51-2.04,12.39-1.36,2.99-3.7,5.14-7.03,6.46-5.43,2.39-17.09,3.47-34.98,3.23ZM2301.4,57.99v-14.72h109.38v14.72h-109.38ZM2312.13,145.96v-71.27h87.17v58.17h-70.52v13.11h-16.66ZM2328.79,118.31h53.67v-29.26h-53.67v29.26Z"/>
      </g>
      <g>
        <path class="cls-2" d="M631.13,300.15v-6.8l49.31-74.16h-44.85v-9.64h59.38v6.67l-49.31,74.16h49.82v9.76h-64.35Z"/>
        <path class="cls-2" d="M738.17,301.76c-9.52,0-17.33-3.09-23.45-9.27-6.46-6.51-9.68-15.12-9.68-25.83s3.19-19.08,9.56-25.83c6.03-6.34,13.25-9.52,21.66-9.52s15.46,2.84,20.39,8.53c4.76,5.6,7.14,13.27,7.14,22.99,0,2.14-.17,4.29-.51,6.43h-46.64c.34,7.17,2.61,12.88,6.82,17.12,4.21,4.24,9.58,6.37,16.12,6.37,6.12,0,11.89-1.77,17.33-5.32l4.21,7.42c-7.39,4.62-15.04,6.92-22.94,6.92ZM716.51,261.22h37.08c0-6.76-1.51-11.93-4.52-15.51-3.02-3.58-7.24-5.38-12.68-5.38-5.1,0-9.47,1.81-13.12,5.44-3.82,3.88-6.07,9.02-6.75,15.45Z"/>
        <path class="cls-2" d="M810.55,329.08c-3.14,0-5.86-.45-8.16-1.36l2.29-9.02c2.12.74,3.86,1.11,5.22,1.11,7.22,0,12.44-4.82,15.67-14.46l1.53-5.07-27.78-67.24h12.11l14.14,37.33c.17.58.47,1.4.89,2.47,2.55,7.42,4.46,12.85,5.73,16.32h.64c.51-1.73,1.32-4.37,2.42-7.91,1.53-4.94,2.68-8.57,3.44-10.88l12.36-37.33h11.34l-26.12,72.68c-2.72,7.33-5.91,12.89-9.56,16.69-4.42,4.45-9.81,6.67-16.18,6.67Z"/>
        <path class="cls-2" d="M888.92,301.76c-5.95,0-10.79-1.65-14.53-4.94-3.82-3.46-5.73-8.16-5.73-14.09,0-7.25,3.4-12.86,10.19-16.81,6.71-3.87,17.5-6.63,32.37-8.28,0-11.29-4.76-16.93-14.27-16.93-6.54,0-13.47,2.39-20.77,7.17l-4.59-7.79c9.43-5.85,18.52-8.78,27.27-8.78,8.16,0,14.27,2.51,18.35,7.54,3.74,4.7,5.61,11.37,5.61,20.02v41.28h-9.56l-1.02-8.03h-.38c-7.99,6.43-15.63,9.64-22.94,9.64ZM892.23,292.74c3.23,0,6.41-.74,9.56-2.22,2.72-1.4,5.86-3.62,9.43-6.67v-18.79c-11.3,1.32-19.41,3.38-24.34,6.18-4.59,2.64-6.88,6.22-6.88,10.75,0,3.63,1.19,6.39,3.57,8.28,2.12,1.65,5.01,2.47,8.67,2.47Z"/>
        <path class="cls-2" d="M944.86,300.15v-67.12h9.56l1.02,9.64h.38c3.82-3.62,7.35-6.3,10.58-8.03,4.08-2.22,8.28-3.34,12.61-3.34,14.1,0,21.15,8.78,21.15,26.33v42.52h-11.6v-41.04c0-6.26-1.04-10.82-3.12-13.66-2.08-2.84-5.42-4.26-10-4.26-3.4,0-6.58.87-9.56,2.6-2.46,1.4-5.61,3.96-9.43,7.66v48.7h-11.6Z"/>
        <path class="cls-2" d="M1046.03,331.05c-8.67,0-15.55-1.57-20.64-4.7-5.35-3.21-8.03-7.66-8.03-13.35s3.44-10.92,10.32-15.2v-.49c-4.25-2.39-6.37-6.06-6.37-11s2.59-8.86,7.77-12.48v-.5c-2.55-1.98-4.63-4.45-6.24-7.42-1.87-3.38-2.8-6.92-2.8-10.63,0-7.17,2.59-13.02,7.77-17.55,4.93-4.28,11-6.43,18.22-6.43,3.23,0,6.46.58,9.68,1.73h24.08v8.65h-14.14c3.74,3.46,5.61,8.08,5.61,13.84,0,7-2.46,12.69-7.39,17.06-4.67,4.2-10.62,6.3-17.84,6.3-3.65,0-7.09-.78-10.32-2.35-2.97,2.47-4.46,5.15-4.46,8.03,0,4.86,4.03,7.29,12.11,7.29h13.51c16.06,0,24.08,5.31,24.08,15.94,0,6.43-3.14,11.87-9.43,16.32-6.63,4.61-15.12,6.92-25.49,6.92ZM1047.69,323.39c6.37,0,11.72-1.44,16.06-4.33,3.99-2.64,5.99-5.81,5.99-9.52,0-2.97-1.19-5.11-3.57-6.43-2.29-1.24-5.82-1.85-10.58-1.85h-11.98c-2.89,0-5.86-.37-8.92-1.11-4.76,3.29-7.14,7.09-7.14,11.37,0,3.62,1.78,6.51,5.35,8.65,3.57,2.14,8.49,3.21,14.78,3.21ZM1045.97,271.23c4.12,0,7.58-1.44,10.39-4.33,2.89-2.97,4.33-6.84,4.33-11.62s-1.4-8.61-4.21-11.5c-2.8-2.8-6.29-4.2-10.45-4.2s-7.73,1.36-10.45,4.08c-2.89,2.97-4.33,6.84-4.33,11.62s1.44,8.65,4.33,11.62c2.8,2.88,6.26,4.33,10.39,4.33Z"/>
        <path class="cls-2" d="M1159.31,301.76c-11.89,0-21.58-4.12-29.05-12.36-7.73-8.57-11.6-20.04-11.6-34.42s3.95-25.89,11.85-34.55c7.65-8.41,17.5-12.61,29.56-12.61,5.27,0,10.28,1.15,15.04,3.46,4.08,1.98,7.6,4.57,10.58,7.79l-6.37,7.42c-5.52-5.77-11.89-8.65-19.11-8.65-8.92,0-16.06,3.32-21.41,9.95-5.35,6.63-8.03,15.55-8.03,26.76s2.61,20.52,7.84,27.19c5.22,6.67,12.3,10.01,21.22,10.01,7.98,0,15.21-3.38,21.66-10.13l6.5,7.17c-7.73,8.65-17.29,12.98-28.67,12.98Z"/>
        <path class="cls-2" d="M1231.18,301.76c-8.92,0-16.4-3.09-22.43-9.27-6.46-6.51-9.68-15.14-9.68-25.9s3.23-19.42,9.68-26.02c6.03-6.18,13.51-9.27,22.43-9.27s16.39,3.09,22.43,9.27c6.45,6.59,9.68,15.26,9.68,26.02s-3.23,19.39-9.68,25.9c-6.03,6.18-13.51,9.27-22.43,9.27ZM1216.65,285.32c3.65,4.7,8.49,7.04,14.53,7.04s10.9-2.35,14.59-7.04c3.7-4.7,5.54-10.92,5.54-18.66s-1.85-14.01-5.54-18.79c-3.7-4.78-8.56-7.17-14.59-7.17s-10.77,2.39-14.46,7.17c-3.7,4.78-5.54,11.04-5.54,18.79s1.83,13.97,5.48,18.66Z"/>
        <path class="cls-2" d="M1281.51,300.15v-67.12h9.56l1.02,9.64h.38c3.82-3.62,7.35-6.3,10.58-8.03,4.08-2.22,8.28-3.34,12.61-3.34,14.1,0,21.15,8.78,21.15,26.33v42.52h-11.6v-41.04c0-6.26-1.04-10.82-3.12-13.66-2.08-2.84-5.42-4.26-10-4.26-3.4,0-6.58.87-9.56,2.6-2.46,1.4-5.61,3.96-9.43,7.66v48.7h-11.6Z"/>
        <path class="cls-2" d="M1377.46,301.76c-4.76,0-9.47-.87-14.14-2.6-4.33-1.65-8.24-3.87-11.72-6.67l5.73-7.42c6.71,5.27,13.55,7.91,20.52,7.91,4.42,0,7.86-1.03,10.32-3.09,2.21-1.89,3.31-4.37,3.31-7.42s-1.66-5.69-4.97-7.91c-2.04-1.32-5.65-2.92-10.83-4.82-6.37-2.31-11-4.57-13.89-6.8-4.5-3.38-6.75-7.58-6.75-12.61,0-5.52,2.08-10.01,6.24-13.47,4.42-3.71,10.28-5.56,17.58-5.56s14.82,2.51,21.54,7.54l-5.61,7.29c-5.52-3.96-10.83-5.93-15.93-5.93-4.08,0-7.26.95-9.56,2.84-2.04,1.73-3.06,3.98-3.06,6.74s1.4,5.05,4.21,6.86c1.78,1.15,5.05,2.6,9.81,4.33.59.25,1.06.41,1.4.5l.13.12c6.8,2.47,11.55,4.74,14.27,6.8,4.42,3.38,6.63,7.87,6.63,13.47s-2.17,10.34-6.5,13.97c-4.59,3.96-10.83,5.93-18.73,5.93Z"/>
        <path class="cls-2" d="M1437.99,301.76c-13.17,0-19.75-7.46-19.75-22.37v-37.2h-10.32v-8.53l10.83-.62,1.4-18.79h9.68v18.79h18.73v9.15h-18.73v37.45c0,4.37.76,7.58,2.29,9.64,1.7,2.22,4.5,3.34,8.41,3.34,2.21,0,4.84-.58,7.9-1.73l2.29,8.41c-5.27,1.65-9.52,2.47-12.74,2.47Z"/>
        <path class="cls-2" d="M1464.24,300.15v-67.12h9.56l1.02,12.24h.38c2.46-4.37,5.35-7.74,8.67-10.14,3.48-2.55,7.14-3.83,10.96-3.83,2.97,0,5.44.49,7.39,1.48l-2.17,9.89c-1.96-.74-4.21-1.11-6.75-1.11-3.23,0-6.29,1.16-9.17,3.46-3.4,2.64-6.16,6.63-8.28,11.99v43.14h-11.6Z"/>
        <path class="cls-2" d="M1533.81,301.76c-14.02,0-21.03-8.73-21.03-26.2v-42.52h11.6v41.16c0,6.26,1.02,10.8,3.06,13.6,2.04,2.8,5.35,4.2,9.94,4.2,3.48,0,6.67-.91,9.56-2.72,2.72-1.65,5.78-4.53,9.17-8.65v-47.59h11.6v67.12h-9.68l-.89-10.51h-.38c-3.48,3.96-6.92,6.88-10.32,8.78-3.91,2.22-8.11,3.34-12.62,3.34Z"/>
        <path class="cls-2" d="M1618.93,301.76c-9.52,0-17.33-3.09-23.45-9.27-6.46-6.51-9.68-15.12-9.68-25.83s3.19-19.08,9.56-25.83c6.03-6.34,13.25-9.52,21.66-9.52s15.46,2.84,20.39,8.53c4.76,5.6,7.14,13.27,7.14,22.99,0,2.14-.17,4.29-.51,6.43h-46.64c.34,7.17,2.61,12.88,6.82,17.12,4.21,4.24,9.58,6.37,16.12,6.37,6.12,0,11.89-1.77,17.33-5.32l4.21,7.42c-7.39,4.62-15.04,6.92-22.94,6.92ZM1597.27,261.22h37.08c0-6.76-1.51-11.93-4.52-15.51-3.02-3.58-7.24-5.38-12.68-5.38-5.1,0-9.47,1.81-13.12,5.44-3.82,3.88-6.07,9.02-6.75,15.45Z"/>
        <path class="cls-2" d="M1682,301.76c-13.17,0-19.75-7.46-19.75-22.37v-37.2h-10.32v-8.53l10.83-.62,1.4-18.79h9.68v18.79h18.73v9.15h-18.73v37.45c0,4.37.76,7.58,2.29,9.64,1.7,2.22,4.5,3.34,8.41,3.34,2.21,0,4.84-.58,7.9-1.73l2.29,8.41c-5.27,1.65-9.52,2.47-12.74,2.47Z"/>
        <path class="cls-2" d="M1714.12,219.19c-2.29,0-4.21-.7-5.73-2.1-1.53-1.4-2.29-3.13-2.29-5.19,0-2.22.74-4,2.23-5.31,1.48-1.32,3.42-1.98,5.8-1.98s4.31.66,5.8,1.98c1.49,1.32,2.23,3.09,2.23,5.31,0,2.06-.76,3.79-2.29,5.19-1.53,1.4-3.44,2.1-5.73,2.1ZM1708.25,300.15v-67.12h11.6v67.12h-11.6Z"/>
        <path class="cls-2" d="M1770.18,301.76c-8.92,0-16.4-3.09-22.43-9.27-6.46-6.51-9.68-15.14-9.68-25.9s3.23-19.42,9.68-26.02c6.03-6.18,13.51-9.27,22.43-9.27s16.39,3.09,22.43,9.27c6.45,6.59,9.68,15.26,9.68,26.02s-3.23,19.39-9.68,25.9c-6.03,6.18-13.51,9.27-22.43,9.27ZM1755.66,285.32c3.65,4.7,8.49,7.04,14.53,7.04s10.9-2.35,14.59-7.04c3.7-4.7,5.54-10.92,5.54-18.66s-1.85-14.01-5.54-18.79c-3.7-4.78-8.56-7.17-14.59-7.17s-10.77,2.39-14.46,7.17c-3.7,4.78-5.54,11.04-5.54,18.79s1.83,13.97,5.48,18.66Z"/>
        <path class="cls-2" d="M1820.51,300.15v-67.12h9.56l1.02,9.64h.38c3.82-3.62,7.35-6.3,10.58-8.03,4.08-2.22,8.28-3.34,12.61-3.34,14.1,0,21.15,8.78,21.15,26.33v42.52h-11.6v-41.04c0-6.26-1.04-10.82-3.12-13.66-2.08-2.84-5.42-4.26-10-4.26-3.4,0-6.58.87-9.56,2.6-2.46,1.4-5.61,3.96-9.43,7.66v48.7h-11.6Z"/>
        <path class="cls-2" d="M1963.23,301.76c-11.89,0-21.58-4.12-29.05-12.36-7.73-8.57-11.6-20.04-11.6-34.42s3.95-25.89,11.85-34.55c7.65-8.41,17.5-12.61,29.56-12.61,5.27,0,10.28,1.15,15.04,3.46,4.08,1.98,7.6,4.57,10.58,7.79l-6.37,7.42c-5.52-5.77-11.89-8.65-19.11-8.65-8.92,0-16.06,3.32-21.41,9.95-5.35,6.63-8.03,15.55-8.03,26.76s2.61,20.52,7.84,27.19c5.22,6.67,12.3,10.01,21.22,10.01,7.98,0,15.21-3.38,21.66-10.13l6.5,7.17c-7.73,8.65-17.29,12.98-28.67,12.98Z"/>
        <path class="cls-2" d="M2035.1,301.76c-8.92,0-16.4-3.09-22.43-9.27-6.46-6.51-9.68-15.14-9.68-25.9s3.23-19.42,9.68-26.02c6.03-6.18,13.51-9.27,22.43-9.27s16.39,3.09,22.43,9.27c6.45,6.59,9.68,15.26,9.68,26.02s-3.23,19.39-9.68,25.9c-6.03,6.18-13.51,9.27-22.43,9.27ZM2020.57,285.32c3.65,4.7,8.49,7.04,14.53,7.04s10.9-2.35,14.59-7.04c3.7-4.7,5.54-10.92,5.54-18.66s-1.85-14.01-5.54-18.79c-3.7-4.78-8.56-7.17-14.59-7.17s-10.77,2.39-14.46,7.17c-3.7,4.78-5.54,11.04-5.54,18.79s1.83,13.97,5.48,18.66Z"/>
        <path class="cls-2" d="M2090.02,301.76c-2.38,0-4.38-.8-5.99-2.41-1.61-1.61-2.42-3.65-2.42-6.12s.83-4.55,2.48-6.24c1.66-1.69,3.63-2.53,5.93-2.53s4.27.85,5.93,2.53c1.66,1.69,2.48,3.77,2.48,6.24s-.81,4.51-2.42,6.12c-1.61,1.61-3.61,2.41-5.99,2.41Z"/>
        <path class="cls-2" d="M2117.29,323.64l-2.8-6.67c8.32-3.54,12.57-9.15,12.74-16.81-.34.08-.81.12-1.4.12-2.38,0-4.38-.66-5.99-1.98-1.7-1.48-2.55-3.46-2.55-5.93,0-2.31.85-4.2,2.55-5.69,1.7-1.48,3.78-2.22,6.24-2.22,3.06,0,5.46,1.2,7.2,3.58,1.74,2.39,2.61,5.65,2.61,9.76,0,5.85-1.66,11.04-4.97,15.57-3.31,4.45-7.86,7.87-13.63,10.26Z"/>
        <path class="cls-2" d="M2155.9,300.15v-90.6h11.85v80.84h40.78v9.76h-52.63Z"/>
        <path class="cls-2" d="M2242.93,301.76c-13.17,0-19.75-7.46-19.75-22.37v-37.2h-10.32v-8.53l10.83-.62,1.4-18.79h9.68v18.79h18.73v9.15h-18.73v37.45c0,4.37.76,7.58,2.29,9.64,1.7,2.22,4.5,3.34,8.41,3.34,2.21,0,4.84-.58,7.9-1.73l2.29,8.41c-5.27,1.65-9.52,2.47-12.74,2.47Z"/>
        <path class="cls-2" d="M2290.84,301.76c-8.75,0-15.67-3.05-20.77-9.15-5.18-6.26-7.77-14.91-7.77-25.96s3.01-19.16,9.05-25.83c5.69-6.34,12.66-9.52,20.9-9.52,3.82,0,7.35.7,10.58,2.1,2.55,1.16,5.52,3.09,8.92,5.81l-.64-11.62v-25.83h11.6v98.39h-9.43l-1.15-7.91h-.25c-6.71,6.35-13.72,9.52-21.03,9.52ZM2279.24,285.57c3.31,4.53,8.03,6.8,14.14,6.8s12.02-3.09,17.71-9.27v-35.23c-5.44-4.7-11.04-7.04-16.82-7.04s-10.41,2.35-14.14,7.04c-3.91,4.86-5.86,11.08-5.86,18.66,0,8.16,1.66,14.5,4.97,19.04Z"/>
        <path class="cls-2" d="M2352.26,301.76c-2.38,0-4.38-.8-5.99-2.41-1.61-1.61-2.42-3.65-2.42-6.12s.83-4.55,2.48-6.24c1.66-1.69,3.63-2.53,5.93-2.53s4.27.85,5.93,2.53c1.66,1.69,2.48,3.77,2.48,6.24s-.81,4.51-2.42,6.12c-1.61,1.61-3.61,2.41-5.99,2.41Z"/>
      </g>
    </g>
    <g>
      <g>
        <polygon class="cls-1" points="160.53 113.63 194.51 79.64 81.81 79.64 116 40.65 192.6 40.65 163.62 6.66 93.45 6.66 0 113.63 112.46 113.63 160.53 113.63"/>
        <polygon class="cls-1" points="82.05 290.4 152.86 219.59 256.67 115.78 234.55 89.84 104.8 219.59 0 324.39 122.34 324.39 300.98 324.39 300.98 290.4 156.33 290.4 82.05 290.4"/>
        <polygon class="cls-1" points="227.14 219.59 193.15 253.58 193.28 253.58 241.34 253.58 275.33 219.59 313.16 181.76 291.01 155.86 227.27 219.59 227.14 219.59"/>
      </g>
      <polyline class="cls-3" points="334.6 241.92 334.6 241.92 513.92 40.65 454.28 40.65 335.21 158.99 297.91 115.78 275.79 89.84 233.84 40.65 204.86 6.66 249.48 6.66 335.7 107.18 436.77 6.66 589.75 6.66 376.32 254.21 376.32 254.25 376.32 290.4 376.32 290.4 418.74 290.4 418.74 260.38 452.39 220.09 452.73 220.09 452.73 324.39 404.44 324.39 370.41 324.39 334.6 324.39 334.6 241.92"/>
      <polygon class="cls-1" points="337.06 6.66 249.48 6.66 322.02 91.67 299.9 65.73 278.51 40.65 322.25 40.65 324.98 40.65 324.96 40.67 348.11 65.58 370.76 42.93 337.06 6.66"/>
    </g>
  </g>
</svg>