<?xml version="1.0" encoding="UTF-8"?>
<svg id="_圖層_2" data-name="圖層 2" xmlns="http://www.w3.org/2000/svg" viewBox="0 0 589.75 317.73">
  <defs>
    <style>
      .cls-1 {
        fill: #cd944a;
      }

      .cls-2 {
        fill: #666;
      }
    </style>
  </defs>
  <g id="_圖層_1-2" data-name="圖層 1">
    <g>
      <g>
        <polygon class="cls-1" points="160.53 106.97 194.51 72.98 81.81 72.98 116 33.99 192.6 33.99 163.62 0 93.45 0 0 106.97 112.46 106.97 160.53 106.97"/>
        <polygon class="cls-1" points="82.05 283.74 152.86 212.93 256.67 109.12 234.55 83.18 104.8 212.93 0 317.73 122.34 317.73 300.98 317.73 300.98 283.74 156.33 283.74 82.05 283.74"/>
        <polygon class="cls-1" points="227.14 212.93 193.15 246.92 193.28 246.92 241.34 246.92 275.33 212.93 313.16 175.1 291.01 149.19 227.27 212.93 227.14 212.93"/>
      </g>
      <polyline class="cls-2" points="334.6 235.26 334.6 235.26 513.92 33.99 454.28 33.99 335.21 152.33 297.91 109.12 275.79 83.18 233.84 33.99 204.86 0 249.48 0 335.7 100.52 436.77 0 589.75 0 376.32 247.55 376.32 247.59 376.32 283.74 376.32 283.74 418.74 283.74 418.74 253.72 452.39 213.43 452.73 213.43 452.73 317.73 404.44 317.73 370.41 317.73 334.6 317.73 334.6 235.26"/>
      <polygon class="cls-1" points="337.06 0 249.48 0 322.02 85.01 299.9 59.07 278.51 33.99 322.25 33.99 324.98 33.99 324.96 34.01 348.11 58.92 370.76 36.27 337.06 0"/>
    </g>
  </g>
</svg>